<svg width="20" height="20" viewBox="0 0 20 20" fill="none" xmlns="http://www.w3.org/2000/svg">
<rect x="1" y="1" width="18" height="18" rx="9" stroke="white" stroke-width="2"/>
<mask id="path-2-inside-1" fill="white">
<path d="M20 10C20 8.68678 19.7413 7.38642 19.2388 6.17317C18.7362 4.95991 17.9997 3.85752 17.0711 2.92893C16.1425 2.00035 15.0401 1.26375 13.8268 0.761205C12.6136 0.258658 11.3132 -5.74026e-08 10 0L10 2.02351C11.0475 2.02351 12.0847 2.22983 13.0525 2.63069C14.0202 3.03154 14.8995 3.61909 15.6402 4.35977C16.3809 5.10046 16.9685 5.97978 17.3693 6.94753C17.7702 7.91528 17.9765 8.95251 17.9765 10H20Z"/>
</mask>
<path d="M20 10C20 8.68678 19.7413 7.38642 19.2388 6.17317C18.7362 4.95991 17.9997 3.85752 17.0711 2.92893C16.1425 2.00035 15.0401 1.26375 13.8268 0.761205C12.6136 0.258658 11.3132 -5.74026e-08 10 0L10 2.02351C11.0475 2.02351 12.0847 2.22983 13.0525 2.63069C14.0202 3.03154 14.8995 3.61909 15.6402 4.35977C16.3809 5.10046 16.9685 5.97978 17.3693 6.94753C17.7702 7.91528 17.9765 8.95251 17.9765 10H20Z" stroke="#594DE7" stroke-width="4" mask="url(#path-2-inside-1)"/>
</svg>
